<svg width="19" height="18" viewBox="0 0 19 18" fill="none" xmlns="http://www.w3.org/2000/svg">
<path d="M17.8 17.5C17.4 17.5 17.1 17.3 16.9 16.9L15.6 14.1H10.9L9.59995 16.9C9.39995 17.4 8.79995 17.6 8.29995 17.4C7.79995 17.2 7.59995 16.6 7.79995 16.1L9.39995 12.8L11.8 7.8C12.1 7.3 12.2 6.9 12.7 6.7C13.1 6.5 13.5 6.5 13.9 6.7C14.3 6.9 14.5 7.3 14.8 7.8L17.2 12.8L18.8 16.1C19 16.6 18.8 17.2 18.3 17.4C18.1 17.5 18 17.5 17.8 17.5ZM11.8 12.2H14.6L13.2 9.3L11.8 12.2ZM1.19995 15C0.799951 15 0.499951 14.8 0.299951 14.4C0.0999511 13.9 0.299951 13.3 0.799951 13.1C2.39995 12.3 3.79995 11.2 4.99995 9.9C3.99995 9 3.29995 8 2.79995 6.9C2.49995 6.4 2.79995 5.8 3.29995 5.6C3.79995 5.4 4.39995 5.6 4.59995 6.1C4.89995 6.8 5.39995 7.6 6.09995 8.2C6.89995 7 7.49995 5.6 7.89995 4.2H1.19995C0.599951 4.2 0.199951 3.8 0.199951 3.2C0.199951 2.6 0.599951 2.2 1.19995 2.2H5.19995V1.5C5.19995 0.9 5.59995 0.5 6.19995 0.5C6.79995 0.5 7.19995 0.9 7.19995 1.5V2.2H11.2C11.8 2.2 12.2 2.6 12.2 3.2C12.2 3.8 11.8 4.2 11.2 4.2H9.89995C9.49995 6.1 8.69995 7.9 7.69995 9.5C7.89995 9.6 8.09995 9.7 8.19995 9.8C8.69995 10 8.89995 10.6 8.69995 11.1C8.49995 11.6 7.89995 11.8 7.39995 11.6C7.09995 11.5 6.79995 11.3 6.49995 11.1C5.19995 12.7 3.49995 14 1.59995 14.9C1.49995 15 1.29995 15 1.19995 15Z" fill="white"/>
</svg>
